<svg width="40" height="40" viewBox="0 0 40 40" fill="none" xmlns="http://www.w3.org/2000/svg">
<path d="M12.15 30.5452C11.4313 30.5452 10.8024 30.2756 10.2634 29.7366C9.72435 29.1976 9.45483 28.5687 9.45483 27.85V2.69516C9.45483 1.97645 9.72435 1.34758 10.2634 0.808548C10.8024 0.269516 11.4313 0 12.15 0H37.3048C38.0236 0 38.6524 0.269516 39.1914 0.808548C39.7305 1.34758 40 1.97645 40 2.69516V27.85C40 28.5687 39.7305 29.1976 39.1914 29.7366C38.6524 30.2756 38.0236 30.5452 37.3048 30.5452H12.15Z" fill="#FAD0D8"/>
<path d="M2.69517 40C1.97646 40 1.34758 39.7305 0.808551 39.1915C0.269517 38.6524 0 38.0236 0 37.3048V9.45484H2.69517V37.3048H30.5452V40H2.69517Z" fill="#FAD0D8"/>
<path d="M7.56825 35.1269C6.84954 35.1269 6.22067 34.8574 5.68163 34.3184C5.1426 33.7793 4.87308 33.1505 4.87308 32.4318V4.58176H7.56825V32.4318H35.4183V35.1269H7.56825Z" fill="#F5A5B4"/>
</svg>
